<svg version="1.1" id="Layer_1" xmlns="http://www.w3.org/2000/svg"
    xmlns:xlink="http://www.w3.org/1999/xlink" x="0px" y="0px"
    width="100%" viewBox="0 0 350 550" enable-background="new 0 0 350 550" xml:space="preserve">
<path fill="#F97316" opacity="1.000000" stroke="none" 
	d="
M174.000000,1.000001 
	C175.066666,1.000000 176.133347,1.000000 177.232300,1.215572 
	C180.877655,7.444307 184.540436,13.428249 188.094940,19.475822 
	C201.825516,42.836716 215.786270,66.067657 229.161469,89.630699 
	C244.872543,117.308861 260.540344,145.031326 275.358582,173.191498 
	C293.360931,207.402557 310.512268,242.069153 324.967957,277.976532 
	C334.872009,302.577850 344.503845,327.282990 349.104797,353.591888 
	C349.203217,354.154541 350.344971,354.534698 351.000000,355.000000 
	C351.000000,370.687561 351.000000,386.375122 350.687103,402.189392 
	C349.916870,403.306885 349.217560,404.256012 349.038635,405.294800 
	C346.491699,420.080353 342.220886,434.323730 336.002197,447.992584 
	C325.834534,470.341339 311.777710,489.940552 293.250488,505.975037 
	C283.912750,514.056396 273.745850,521.399231 263.176239,527.789795 
	C243.900909,539.444031 222.825027,546.488403 200.354584,549.115295 
	C199.836700,549.175842 199.448639,550.346924 199.000000,551.000000 
	C183.979111,551.000000 168.958206,551.000000 153.825882,550.684937 
	C152.886337,549.917236 152.090561,549.146729 151.225342,549.058594 
	C133.199493,547.223206 116.303566,541.436768 100.021599,533.897034 
	C75.238037,522.420410 54.598888,505.315918 37.840187,484.037384 
	C19.315264,460.516327 7.316067,433.753021 2.918880,403.864136 
	C2.815850,403.163818 1.663111,402.617920 0.999997,402.000000 
	C1.000000,386.645782 1.000000,371.291534 1.298563,355.826355 
	C2.063745,354.732971 2.717090,353.795593 2.966638,352.760773 
	C4.568174,346.119537 5.487283,339.248901 7.732090,332.839447 
	C15.135521,311.700897 22.562738,290.550507 30.800396,269.728912 
	C44.552303,234.969406 61.466900,201.654068 79.136047,168.762360 
	C96.173080,137.047333 113.672447,105.573128 131.444473,74.263184 
	C142.949020,53.994968 155.358170,34.241482 167.244736,14.187858 
	C169.758377,9.947136 171.761612,5.403871 174.000000,1.000001 
M253.812256,483.007294 
	C286.031433,466.905701 305.906769,440.702332 316.177826,406.682037 
	C322.394165,386.091980 322.650940,365.526581 317.176056,344.588715 
	C312.056152,325.008331 305.900024,305.847382 297.168549,287.628082 
	C286.673340,265.728516 276.645386,243.496140 264.459137,222.545593 
	C251.454590,200.188263 236.257797,179.098007 221.813843,157.591751 
	C218.182037,152.184189 213.769577,147.300919 209.715881,142.176712 
	C211.167175,149.257004 213.413605,155.821335 215.986115,162.255310 
	C229.270203,195.479630 242.664093,228.660019 255.966827,261.876923 
	C264.551117,283.311829 273.548309,304.599823 281.440918,326.288269 
	C289.813965,349.296967 298.744904,372.457855 293.940948,397.806641 
	C292.070129,407.678436 290.390137,417.715302 287.150757,427.172638 
	C279.945526,448.208466 268.139282,466.592560 251.878922,482.696503 
	C251.713364,483.036560 251.547806,483.376587 251.382233,483.716644 
	C251.949509,483.508179 252.516785,483.299744 253.812256,483.007294 
z"/>
</svg>